<?xml version="1.0" encoding="UTF-8"?>
<svg id="Capa_1" data-name="Capa 1" xmlns="http://www.w3.org/2000/svg" viewBox="0 0 513 490.93">
  <defs>
    <style>
      .cls-1 {
        fill: #fff;
      }
    </style>
  </defs>
  <g>
    <path class="cls-1" d="m428.87,170.22c-3.56,5.5-7.42,11.11-11.67,16.75-9.03,12.03-18.69,22.72-28.8,32.16v43.95c25.47-20.91,44.07-47.15,56.66-69.16-5.51-8.41-10.98-16.35-16.19-23.7Z"/>
    <path class="cls-1" d="m490.66,276.92c-4.02-9.35-8.45-18.6-13.12-27.67-5.6,9.77-12.31,20.27-20.28,30.85-20.28,27-43.49,47.51-68.87,61.23v39.55c51.97-22.44,84.92-70.81,102.27-103.96Z"/>
    <path class="cls-1" d="m469.02,233.39c-4.82-8.63-9.8-17.02-14.81-25.09-4.91,8.12-10.52,16.63-16.98,25.22-14.81,19.72-31.18,36-48.83,48.7v41.7c39.15-23.97,65.35-62.12,80.62-90.54Z"/>
    <path class="cls-1" d="m419.28,157c-17.72-23.94-30.84-38.96-30.89-39v79.65c12.41-13.29,22.67-27.45,30.89-40.66Z"/>
    <path class="cls-1" d="m497.33,373.25c-30.54,40.64-67.71,66.63-108.94,76.7v40.98c56.6,0,104.32-37.78,119.5-89.46,2.02-6.49,3.37-13.23,4.12-20.16.6-4.94.98-9.9.98-14.98s-.42-9.74-1.02-14.51c-4.35,6.97-9.2,14.17-14.65,21.42Z"/>
    <path class="cls-1" d="m508.01,328.48c-2.51-11.02-5.96-22.19-10.07-33.31-5.68,9.94-12.5,20.68-20.64,31.51-25.5,33.95-55.64,57.66-88.9,70.43v37.35c60.89-16.55,99.33-68.87,119.62-105.98Z"/>
  </g>
  <path class="cls-1" d="m244.72,347.83c-.91,6.06-1.52,12.2-1.52,18.5,0,5.08.39,10.05.99,14.98.75,6.93,2.09,13.67,4.12,20.16,15.19,51.69,62.9,89.46,119.51,89.46V118c-.09.1-109.89,125.62-123.09,229.83Zm94.82,93.31c-1.16,3.49-4.4,5.7-7.89,5.7-.87,0-1.75-.14-2.62-.43-27.85-9.24-38.15-35.08-38.57-36.18-1.66-4.29.47-9.09,4.75-10.75,4.27-1.65,9.08.46,10.74,4.71.16.39,8.16,19.75,28.31,26.44,4.36,1.44,6.73,6.15,5.27,10.51Z"/>
  <path class="cls-1" d="m0,0v117.5h342.21c6.73-8.31,10.87-13.03,10.97-13.13l13.83-14.85V0H0Zm75.5,89.5h-31v-31h31v31Zm60,0h-31v-31h31v31Zm60,0h-31v-31h31v31Z"/>
  <path class="cls-1" d="m0,144v117.5h250.44c11.23-24.72,25.91-50.96,44.02-78.59,9.52-14.52,18.86-27.68,27.21-38.91H0Zm75.5,89.5h-31v-31h31v31Zm60,0h-31v-31h31v31Zm60,0h-31v-31h31v31Z"/>
  <path class="cls-1" d="m224.32,383.59c-.75-6.25-1.12-11.9-1.12-17.26,0-6.57.56-13.53,1.71-21.24,2.2-17.23,6.84-35.62,13.87-55.09H0v117.5h229.24c-.02-.08-.05-.16-.08-.24-2.32-7.47-3.95-15.43-4.84-23.67Zm-148.82-4.09h-31v-31h31v31Zm60,0h-31v-31h31v31Zm60,0h-31v-31h31v31Z"/>
</svg>